<mxfile host="app.diagrams.net" modified="2021-12-18T16:01:02.115Z" agent="5.0 (X11)" etag="6NeAjdDZ_Fboj6Id13Ki" version="16.0.0" type="github">
  <diagram id="UC0HrTdK7Nj5UcmXFFME" name="Page-1">
    <mxGraphModel dx="782" dy="418" grid="1" gridSize="10" guides="1" tooltips="1" connect="1" arrows="1" fold="1" page="1" pageScale="1" pageWidth="827" pageHeight="1169" math="0" shadow="0">
      <root>
        <mxCell id="0" />
        <mxCell id="1" parent="0" />
        <mxCell id="_Uxp1DuwdEMMPWsk7u24-9" style="edgeStyle=orthogonalEdgeStyle;rounded=0;orthogonalLoop=1;jettySize=auto;html=1;entryX=0.5;entryY=0;entryDx=0;entryDy=0;" edge="1" parent="1" source="_Uxp1DuwdEMMPWsk7u24-1" target="_Uxp1DuwdEMMPWsk7u24-2">
          <mxGeometry relative="1" as="geometry" />
        </mxCell>
        <mxCell id="_Uxp1DuwdEMMPWsk7u24-1" value="Начало" style="ellipse;whiteSpace=wrap;html=1;" vertex="1" parent="1">
          <mxGeometry x="340" y="30" width="120" height="80" as="geometry" />
        </mxCell>
        <mxCell id="_Uxp1DuwdEMMPWsk7u24-10" style="edgeStyle=orthogonalEdgeStyle;rounded=0;orthogonalLoop=1;jettySize=auto;html=1;entryX=0.5;entryY=0;entryDx=0;entryDy=0;" edge="1" parent="1" source="_Uxp1DuwdEMMPWsk7u24-2" target="_Uxp1DuwdEMMPWsk7u24-3">
          <mxGeometry relative="1" as="geometry" />
        </mxCell>
        <mxCell id="_Uxp1DuwdEMMPWsk7u24-2" value="Ввод: год (year)" style="shape=parallelogram;perimeter=parallelogramPerimeter;whiteSpace=wrap;html=1;fixedSize=1;" vertex="1" parent="1">
          <mxGeometry x="340" y="140" width="120" height="60" as="geometry" />
        </mxCell>
        <mxCell id="_Uxp1DuwdEMMPWsk7u24-11" style="edgeStyle=orthogonalEdgeStyle;rounded=0;orthogonalLoop=1;jettySize=auto;html=1;entryX=0.5;entryY=0;entryDx=0;entryDy=0;" edge="1" parent="1" source="_Uxp1DuwdEMMPWsk7u24-3" target="_Uxp1DuwdEMMPWsk7u24-6">
          <mxGeometry relative="1" as="geometry" />
        </mxCell>
        <mxCell id="_Uxp1DuwdEMMPWsk7u24-12" style="edgeStyle=orthogonalEdgeStyle;rounded=0;orthogonalLoop=1;jettySize=auto;html=1;entryX=0.5;entryY=0;entryDx=0;entryDy=0;" edge="1" parent="1" source="_Uxp1DuwdEMMPWsk7u24-3" target="_Uxp1DuwdEMMPWsk7u24-7">
          <mxGeometry relative="1" as="geometry" />
        </mxCell>
        <mxCell id="_Uxp1DuwdEMMPWsk7u24-3" value="Проверка: year % 4 = 0" style="rhombus;whiteSpace=wrap;html=1;" vertex="1" parent="1">
          <mxGeometry x="325" y="240" width="150" height="80" as="geometry" />
        </mxCell>
        <mxCell id="_Uxp1DuwdEMMPWsk7u24-4" value="Да" style="text;html=1;strokeColor=none;fillColor=none;align=center;verticalAlign=middle;whiteSpace=wrap;rounded=0;" vertex="1" parent="1">
          <mxGeometry x="500" y="240" width="60" height="30" as="geometry" />
        </mxCell>
        <mxCell id="_Uxp1DuwdEMMPWsk7u24-5" value="Нет" style="text;html=1;strokeColor=none;fillColor=none;align=center;verticalAlign=middle;whiteSpace=wrap;rounded=0;" vertex="1" parent="1">
          <mxGeometry x="240" y="240" width="60" height="30" as="geometry" />
        </mxCell>
        <mxCell id="_Uxp1DuwdEMMPWsk7u24-18" style="edgeStyle=orthogonalEdgeStyle;rounded=0;orthogonalLoop=1;jettySize=auto;html=1;entryX=1;entryY=0.5;entryDx=0;entryDy=0;" edge="1" parent="1" source="_Uxp1DuwdEMMPWsk7u24-6" target="_Uxp1DuwdEMMPWsk7u24-8">
          <mxGeometry relative="1" as="geometry" />
        </mxCell>
        <mxCell id="_Uxp1DuwdEMMPWsk7u24-6" value="Вывод: &quot;Это високосный год&quot;" style="shape=parallelogram;perimeter=parallelogramPerimeter;whiteSpace=wrap;html=1;fixedSize=1;" vertex="1" parent="1">
          <mxGeometry x="510" y="320" width="120" height="60" as="geometry" />
        </mxCell>
        <mxCell id="_Uxp1DuwdEMMPWsk7u24-16" style="edgeStyle=orthogonalEdgeStyle;rounded=0;orthogonalLoop=1;jettySize=auto;html=1;entryX=0;entryY=0.5;entryDx=0;entryDy=0;" edge="1" parent="1" source="_Uxp1DuwdEMMPWsk7u24-7" target="_Uxp1DuwdEMMPWsk7u24-8">
          <mxGeometry relative="1" as="geometry" />
        </mxCell>
        <mxCell id="_Uxp1DuwdEMMPWsk7u24-7" value="Вывод: &quot;Это не високосный год&quot;" style="shape=parallelogram;perimeter=parallelogramPerimeter;whiteSpace=wrap;html=1;fixedSize=1;" vertex="1" parent="1">
          <mxGeometry x="180" y="320" width="120" height="60" as="geometry" />
        </mxCell>
        <mxCell id="_Uxp1DuwdEMMPWsk7u24-8" value="Конец" style="ellipse;whiteSpace=wrap;html=1;" vertex="1" parent="1">
          <mxGeometry x="340" y="390" width="120" height="80" as="geometry" />
        </mxCell>
      </root>
    </mxGraphModel>
  </diagram>
</mxfile>
